<svg width="38" height="38" viewBox="0 0 38 38" fill="none" xmlns="http://www.w3.org/2000/svg">
<path d="M23.4402 8.3073C24.9833 8.60779 26.4015 9.36103 27.5132 10.4706C28.6249 11.5802 29.3796 12.9956 29.6806 14.5358M23.4402 2C26.6462 2.35547 29.6357 3.7884 31.9181 6.06349C34.2004 8.33859 35.6398 11.3206 36 14.52M34.4202 27.1031V31.8335C34.4219 32.2727 34.3318 32.7074 34.1555 33.1097C33.9793 33.5121 33.7208 33.8733 33.3965 34.1702C33.0723 34.4671 32.6896 34.6931 32.2727 34.8338C31.8559 34.9745 31.4143 35.0267 30.9761 34.9872C26.1146 34.46 21.4449 32.8019 17.342 30.1463C13.5248 27.7254 10.2885 24.4953 7.86295 20.6854C5.19298 16.5718 3.5314 11.8883 3.01282 7.01431C2.97334 6.57826 3.02526 6.13879 3.16528 5.72387C3.30529 5.30895 3.53033 4.92768 3.82607 4.60432C4.12181 4.28096 4.48177 4.02261 4.88303 3.84571C5.28429 3.66881 5.71806 3.57724 6.15672 3.57683H10.8963C11.663 3.56929 12.4063 3.84028 12.9876 4.33927C13.5689 4.83827 13.9486 5.53122 14.0559 6.28897C14.256 7.80282 14.627 9.28924 15.1618 10.7198C15.3744 11.2842 15.4204 11.8976 15.2944 12.4873C15.1684 13.077 14.8757 13.6182 14.4509 14.047L12.4445 16.0495C14.6935 19.9972 17.9684 23.2658 21.9236 25.5105L23.93 23.5079C24.3595 23.084 24.9018 22.7918 25.4926 22.666C26.0834 22.5403 26.698 22.5862 27.2635 22.7983C28.6968 23.3322 30.1861 23.7025 31.7028 23.9021C32.4703 24.0102 33.1711 24.396 33.6722 24.9862C34.1732 25.5764 34.4394 26.3298 34.4202 27.1031Z" stroke="white" stroke-width="3.13333" stroke-linecap="round" stroke-linejoin="round"/>
</svg>
